<?xml version="1.0" encoding="utf-8"?>
<!-- Generator: Adobe Illustrator 17.0.0, SVG Export Plug-In . SVG Version: 6.00 Build 0)  -->
<!DOCTYPE svg PUBLIC "-//W3C//DTD SVG 1.1//EN" "http://www.w3.org/Graphics/SVG/1.1/DTD/svg11.dtd">
<svg version="1.1" id="Calque_10" xmlns="http://www.w3.org/2000/svg" xmlns:xlink="http://www.w3.org/1999/xlink" x="0px" y="0px"
	 width="566.929px" height="283.464px" viewBox="0 0 566.929 283.464" enable-background="new 0 0 566.929 283.464"
	 xml:space="preserve">
<g>
	<g>
		<path fill="#666666" d="M75.276,203.085v7.596c-2.926-4.862-8.238-8.13-14.316-8.13c-9.216,0-16.716,7.498-16.716,16.718
			c0,9.218,7.5,16.714,16.716,16.714c6.077,0,11.39-3.266,14.316-8.128v7.66h2.447v-32.43H75.276z M60.96,233.41
			c-7.797,0-14.141-6.342-14.141-14.141c0-7.798,6.344-14.145,14.141-14.145c7.799,0,14.143,6.347,14.143,14.145
			C75.103,227.068,68.759,233.41,60.96,233.41z"/>
		<path fill="#666666" d="M102.943,202.92c-4.847,0-9.151,2.28-11.699,5.905v-5.74h-2.447v32.43h2.447v-18.844
			c0-6.445,5.03-11.306,11.699-11.306c7.324,0,11.696,4.104,11.696,10.974v19.176h2.446v-19.176
			C117.085,208.063,111.666,202.92,102.943,202.92z"/>
		<path fill="#666666" d="M148.868,230.632c-1.618,1.677-4.184,2.602-7.227,2.602c-5.113,0-7.816-2.934-7.816-8.479v-19.227h16.6
			v-2.443h-16.6v-10.721h-2.444v10.721h-8.057v2.443h8.057v19.227c0,6.939,3.74,10.922,10.26,10.922
			c3.706,0,6.907-1.203,9.015-3.381l0.836-0.863l-1.975-1.475L148.868,230.632z"/>
		<path fill="#666666" d="M172.588,202.92c-4.847,0-9.153,2.283-11.699,5.907v-22.775h-2.444v49.463h2.444v-18.844
			c0-6.445,5.029-11.306,11.699-11.306c7.325,0,11.697,4.104,11.697,10.974v19.176h2.444v-19.176
			C186.729,208.063,181.311,202.92,172.588,202.92z"/>
		<rect x="198.26" y="203.085" fill="#666666" width="2.447" height="32.43"/>
		<rect x="198.26" y="190" fill="#666666" width="2.447" height="5.864"/>
		<rect x="211.797" y="186.052" fill="#666666" width="2.448" height="49.463"/>
		<rect x="226.181" y="186.052" fill="#666666" width="2.448" height="49.463"/>
		<path fill="#666666" d="M254.768,214.605l-3.26-0.495c-3.587-0.529-4.289-1.211-4.289-2.206c0-1.986,2.526-2.693,4.893-2.693
			c3.494,0,7.204,1.314,9.172,2.536l0.946,0.588l3.971-7.199l-0.828-0.534c-3.477-2.252-8.211-3.487-13.328-3.487
			c-8.683,0-14.079,4.272-14.079,11.152c0,5.608,4.121,9.261,11.608,10.285l3.277,0.425c2.075,0.29,4.546,0.949,4.546,2.438
			c0,1.747-2.284,2.787-6.111,2.787c-5.172,0-7.924-1.603-9.745-3.002l-0.927-0.711l-4.315,6.984l0.78,0.579
			c4.984,3.698,11,4.251,14.143,4.251c9.351,0,15.393-4.455,15.393-11.349C266.616,221.008,264.559,216.007,254.768,214.605z"/>
		<path fill="#666666" d="M288.287,201.081c-10.254,0-17.988,7.578-17.988,17.626c0,10.051,7.734,17.631,17.988,17.631
			c10.277,0,18.028-7.58,18.028-17.631C306.315,208.659,298.564,201.081,288.287,201.081z M288.287,227.742
			c-5.1,0-8.802-3.8-8.802-9.035c0-5.235,3.702-9.034,8.802-9.034c5.124,0,8.841,3.799,8.841,9.034
			C297.128,223.942,293.411,227.742,288.287,227.742z"/>
		<rect x="312.689" y="186.052" fill="#666666" width="9.021" height="49.463"/>
		<path fill="#666666" d="M352.329,220.483c0,4.814-2.235,7.259-6.639,7.259c-4.401,0-6.632-2.444-6.632-7.259v-18.582h-9.021
			v19.208c0,11.237,8.433,15.229,15.652,15.229c7.222,0,15.656-3.991,15.656-15.229v-19.208h-9.018V220.483z"/>
		<path fill="#666666" d="M390.902,225.767c-1.988,1.255-4.094,1.975-5.779,1.975c-2.614,0-3.939-1.624-3.939-4.826v-12.65h12.067
			v-8.364h-12.067v-9.536h-9.024v9.536h-6.275v8.364h6.275v12.782c0,8.693,4.279,13.29,12.373,13.29
			c3.609,0,6.964-1.084,10.256-3.308l0.765-0.515l-3.657-7.37L390.902,225.767z"/>
		<path fill="#666666" d="M403.977,186.153c-3.284,0-5.855,2.603-5.855,5.924c0,3.338,2.516,5.855,5.855,5.855
			c3.321,0,5.922-2.573,5.922-5.855C409.899,188.755,407.299,186.153,403.977,186.153z"/>
		<rect x="399.5" y="201.901" fill="#666666" width="9.019" height="33.614"/>
		<path fill="#666666" d="M432.56,201.081c-10.254,0-17.986,7.578-17.986,17.626c0,10.051,7.732,17.631,17.986,17.631
			c10.274,0,18.025-7.58,18.025-17.631C450.585,208.659,442.834,201.081,432.56,201.081z M432.56,227.742
			c-5.101,0-8.802-3.8-8.802-9.035c0-5.235,3.7-9.034,8.802-9.034c5.12,0,8.839,3.799,8.839,9.034
			C441.399,223.942,437.681,227.742,432.56,227.742z"/>
		<path fill="#666666" d="M473.764,201.081c-2.562,0-5.898,0.566-8.61,2.938v-2.117h-8.956v33.614h9.024v-18.519
			c0-5.356,3.821-7.259,7.091-7.259c4.047,0,6.272,2.555,6.272,7.193v18.584h9.024V214.66
			C487.609,206.665,481.914,201.081,473.764,201.081z"/>
		<path fill="#666666" d="M510.837,214.605l-3.257-0.495c-3.589-0.529-4.29-1.211-4.29-2.206c0-1.986,2.526-2.693,4.892-2.693
			c3.496,0,7.205,1.312,9.172,2.536l0.943,0.59l3.98-7.201l-0.83-0.534c-3.478-2.252-8.215-3.487-13.334-3.487
			c-8.685,0-14.078,4.272-14.078,11.152c0,5.608,4.121,9.261,11.61,10.285l3.273,0.425c2.075,0.29,4.548,0.949,4.548,2.438
			c0,1.747-2.283,2.787-6.111,2.787c-5.17,0-7.922-1.603-9.741-3.002l-0.932-0.711l-4.314,6.982l0.779,0.581
			c4.981,3.698,11,4.251,14.143,4.251c9.353,0,15.395-4.455,15.395-11.349C522.685,221.008,520.629,216.007,510.837,214.605z"/>
	</g>
	<g>
		<path fill="#006AB3" d="M329.24,111.841c-1.681,27.175-24.26,48.788-51.853,48.788c-28.681,0-52.016-23.335-52.016-52.016
			c0-28.681,23.335-52.018,52.016-52.018c27.667,0,50.295,21.732,51.864,49.015h9.789V49.084h-8.998v27.948
			c-10.768-17.883-30.308-29.905-52.655-29.905c-33.904,0-61.485,27.583-61.485,61.487c0,33.903,27.581,61.485,61.485,61.485
			c22.347,0,41.887-12.021,52.655-29.903v28.173h8.998v-56.527H329.24z"/>
		<path fill="#006AB3" d="M280.502,62.994v9.469c18.567,1.587,33.197,17.18,33.197,36.151c0,15.77-10.124,29.186-24.198,34.188
			v-6.68c10.563-4.671,17.962-15.234,17.962-27.508c0-16.585-13.491-30.076-30.076-30.076c-16.585,0-30.075,13.491-30.075,30.076
			c0,12.273,7.4,22.837,17.962,27.508v6.68c-14.076-5.002-24.199-18.418-24.199-34.188c0-18.971,14.631-34.563,33.196-36.151v-9.469
			c-23.791,1.609-42.666,21.426-42.666,45.62c0,24.193,18.875,44.01,42.666,45.62v-4.928v-19.304v-1.099
			c-9.876-1.512-17.49-9.995-17.49-20.29c0-11.362,9.244-20.606,20.605-20.606c11.364,0,20.606,9.245,20.606,20.606
			c0,10.295-7.615,18.778-17.491,20.29v1.099v19.304v4.928c23.792-1.61,42.667-21.427,42.667-45.62
			C323.169,84.42,304.294,64.603,280.502,62.994z"/>
		<path fill="#006AB3" d="M291.759,108.614c0-7.925-6.449-14.37-14.372-14.37c-7.922,0-14.37,6.445-14.37,14.37
			s6.448,14.37,14.37,14.37C285.31,122.983,291.759,116.539,291.759,108.614z M272.487,108.614c0-2.702,2.198-4.9,4.9-4.9
			c2.703,0,4.902,2.198,4.902,4.9c0,2.702-2.199,4.9-4.902,4.9C274.685,113.514,272.487,111.316,272.487,108.614z"/>
	</g>
</g>
</svg>
